<mxfile modified="2023-03-02T09:07:27.841Z" host="app.diagrams.net" agent="5.0 (Macintosh; Intel Mac OS X 10_15_7) AppleWebKit/537.36 (KHTML, like Gecko) Chrome/110.0.0.0 Safari/537.36" etag="huaVgS4BUWIs6ZA-tD6N" version="20.8.1" type="github" pages="4">
  <diagram id="QHqpLSU-fdE5Svy4Iw9_" name="架构图">
    <mxGraphModel dx="1195" dy="694" grid="1" gridSize="10" guides="1" tooltips="1" connect="1" arrows="1" fold="1" page="1" pageScale="1" pageWidth="827" pageHeight="1169" math="0" shadow="0">
      <root>
        <mxCell id="0" />
        <mxCell id="1" parent="0" />
        <mxCell id="9kweAl1eoht-Mn5aI06N-27" value="" style="rounded=0;whiteSpace=wrap;html=1;dashed=1;dashPattern=8 8;glass=0;" vertex="1" parent="1">
          <mxGeometry x="120" y="115" width="810" height="455" as="geometry" />
        </mxCell>
        <mxCell id="9kweAl1eoht-Mn5aI06N-16" value="" style="rounded=0;whiteSpace=wrap;html=1;strokeColor=#999999;fillColor=#f5f5f5;fontColor=#333333;" vertex="1" parent="1">
          <mxGeometry x="610" y="230" width="270" height="190" as="geometry" />
        </mxCell>
        <mxCell id="9kweAl1eoht-Mn5aI06N-17" value="" style="rounded=0;whiteSpace=wrap;html=1;strokeColor=#82b366;fillColor=#d5e8d4;" vertex="1" parent="1">
          <mxGeometry x="635" y="280" width="205" height="115" as="geometry" />
        </mxCell>
        <mxCell id="DRKu7bPqZMU2_JwGomFF-2" value="" style="rounded=0;whiteSpace=wrap;html=1;strokeColor=#999999;fillColor=#f5f5f5;fontColor=#333333;" parent="1" vertex="1">
          <mxGeometry x="190" y="230" width="380" height="190" as="geometry" />
        </mxCell>
        <mxCell id="XTTUQiexYlqABtr_ovT6-5" value="" style="rounded=1;whiteSpace=wrap;html=1;strokeColor=#6c8ebf;fillColor=#dae8fc;movable=1;resizable=1;rotatable=1;deletable=1;editable=1;connectable=1;" parent="1" vertex="1">
          <mxGeometry x="200" y="280" width="170" height="110" as="geometry" />
        </mxCell>
        <mxCell id="DRKu7bPqZMU2_JwGomFF-1" value="" style="rounded=0;whiteSpace=wrap;html=1;strokeColor=#6c8ebf;fillColor=#dae8fc;gradientColor=#7ea6e0;" parent="1" vertex="1">
          <mxGeometry x="190" y="150" width="690" height="70" as="geometry" />
        </mxCell>
        <mxCell id="DRKu7bPqZMU2_JwGomFF-3" value="" style="rounded=0;whiteSpace=wrap;html=1;strokeColor=#82b366;fillColor=#d5e8d4;" parent="1" vertex="1">
          <mxGeometry x="650" y="290" width="205" height="115" as="geometry" />
        </mxCell>
        <mxCell id="DRKu7bPqZMU2_JwGomFF-4" value="" style="rounded=0;whiteSpace=wrap;html=1;" parent="1" vertex="1">
          <mxGeometry x="190" y="440" width="690" height="90" as="geometry" />
        </mxCell>
        <mxCell id="DRKu7bPqZMU2_JwGomFF-5" value="用户层" style="text;html=1;strokeColor=none;fillColor=none;align=center;verticalAlign=middle;whiteSpace=wrap;rounded=0;" parent="1" vertex="1">
          <mxGeometry x="130" y="167.5" width="60" height="30" as="geometry" />
        </mxCell>
        <mxCell id="XTTUQiexYlqABtr_ovT6-1" value="Openresty" style="rounded=1;whiteSpace=wrap;html=1;strokeColor=none;movable=1;resizable=1;rotatable=1;deletable=1;editable=1;connectable=1;" parent="1" vertex="1">
          <mxGeometry x="210" y="290" width="70" height="30" as="geometry" />
        </mxCell>
        <mxCell id="XTTUQiexYlqABtr_ovT6-2" value="Bypass" style="rounded=1;whiteSpace=wrap;html=1;strokeColor=none;movable=1;resizable=1;rotatable=1;deletable=1;editable=1;connectable=1;" parent="1" vertex="1">
          <mxGeometry x="290" y="290" width="70" height="30" as="geometry" />
        </mxCell>
        <mxCell id="XTTUQiexYlqABtr_ovT6-3" value="Event Agent" style="rounded=1;whiteSpace=wrap;html=1;strokeColor=none;movable=1;resizable=1;rotatable=1;deletable=1;editable=1;connectable=1;" parent="1" vertex="1">
          <mxGeometry x="290" y="330" width="70" height="30" as="geometry" />
        </mxCell>
        <mxCell id="XTTUQiexYlqABtr_ovT6-4" value="Logd" style="rounded=1;whiteSpace=wrap;html=1;strokeColor=none;movable=1;resizable=1;rotatable=1;deletable=1;editable=1;connectable=1;" parent="1" vertex="1">
          <mxGeometry x="210" y="330" width="70" height="30" as="geometry" />
        </mxCell>
        <mxCell id="XTTUQiexYlqABtr_ovT6-6" value="" style="rounded=1;whiteSpace=wrap;html=1;strokeColor=#6c8ebf;fillColor=#dae8fc;movable=1;resizable=1;rotatable=1;deletable=1;editable=1;connectable=1;" parent="1" vertex="1">
          <mxGeometry x="380" y="280" width="170" height="110" as="geometry" />
        </mxCell>
        <mxCell id="XTTUQiexYlqABtr_ovT6-7" value="Openresty" style="rounded=1;whiteSpace=wrap;html=1;strokeColor=none;movable=1;resizable=1;rotatable=1;deletable=1;editable=1;connectable=1;" parent="1" vertex="1">
          <mxGeometry x="390" y="290" width="70" height="30" as="geometry" />
        </mxCell>
        <mxCell id="XTTUQiexYlqABtr_ovT6-8" value="Bypass" style="rounded=1;whiteSpace=wrap;html=1;strokeColor=none;movable=1;resizable=1;rotatable=1;deletable=1;editable=1;connectable=1;" parent="1" vertex="1">
          <mxGeometry x="470" y="290" width="70" height="30" as="geometry" />
        </mxCell>
        <mxCell id="XTTUQiexYlqABtr_ovT6-9" value="Event Agent" style="rounded=1;whiteSpace=wrap;html=1;strokeColor=none;movable=1;resizable=1;rotatable=1;deletable=1;editable=1;connectable=1;" parent="1" vertex="1">
          <mxGeometry x="470" y="330" width="70" height="30" as="geometry" />
        </mxCell>
        <mxCell id="XTTUQiexYlqABtr_ovT6-10" value="Logd" style="rounded=1;whiteSpace=wrap;html=1;strokeColor=none;movable=1;resizable=1;rotatable=1;deletable=1;editable=1;connectable=1;" parent="1" vertex="1">
          <mxGeometry x="390" y="330" width="70" height="30" as="geometry" />
        </mxCell>
        <mxCell id="XTTUQiexYlqABtr_ovT6-16" value="SLB" style="rounded=0;whiteSpace=wrap;html=1;strokeColor=#808080;fillColor=#fff2cc;" parent="1" vertex="1">
          <mxGeometry x="200" y="245" width="350" height="30" as="geometry" />
        </mxCell>
        <mxCell id="XTTUQiexYlqABtr_ovT6-17" value="Engine" style="text;html=1;strokeColor=none;fillColor=none;align=center;verticalAlign=middle;whiteSpace=wrap;rounded=0;" parent="1" vertex="1">
          <mxGeometry x="435" y="360" width="60" height="30" as="geometry" />
        </mxCell>
        <mxCell id="A2RBMv4qCWmO6yTB0ns1-3" value="Engine" style="text;html=1;strokeColor=none;fillColor=none;align=center;verticalAlign=middle;whiteSpace=wrap;rounded=0;" parent="1" vertex="1">
          <mxGeometry x="255" y="360" width="60" height="30" as="geometry" />
        </mxCell>
        <mxCell id="A2RBMv4qCWmO6yTB0ns1-4" value="" style="fontColor=#0066CC;verticalAlign=top;verticalLabelPosition=bottom;labelPosition=center;align=center;html=1;outlineConnect=0;fillColor=#CCCCCC;strokeColor=#6881B3;gradientColor=none;gradientDirection=north;strokeWidth=2;shape=mxgraph.networks.mobile;rounded=0;" parent="1" vertex="1">
          <mxGeometry x="315" y="162.5" width="25" height="45" as="geometry" />
        </mxCell>
        <mxCell id="A2RBMv4qCWmO6yTB0ns1-5" value="" style="fontColor=#0066CC;verticalAlign=top;verticalLabelPosition=bottom;labelPosition=center;align=center;html=1;outlineConnect=0;fillColor=#CCCCCC;strokeColor=#6881B3;gradientColor=none;gradientDirection=north;strokeWidth=2;shape=mxgraph.networks.pc;rounded=0;" parent="1" vertex="1">
          <mxGeometry x="395" y="157.5" width="60" height="50" as="geometry" />
        </mxCell>
        <mxCell id="T-98aVVm2dTqcfH8pRrv-1" value="Redis" style="sketch=0;aspect=fixed;html=1;points=[];align=center;image;fontSize=12;image=img/lib/mscae/Cache_Redis_Product.svg;" vertex="1" parent="1">
          <mxGeometry x="355" y="454" width="50" height="42" as="geometry" />
        </mxCell>
        <mxCell id="T-98aVVm2dTqcfH8pRrv-3" value="Configration" style="rounded=0;whiteSpace=wrap;html=1;" vertex="1" parent="1">
          <mxGeometry x="666" y="300" width="82" height="30" as="geometry" />
        </mxCell>
        <mxCell id="T-98aVVm2dTqcfH8pRrv-4" value="Uprade" style="rounded=0;whiteSpace=wrap;html=1;" vertex="1" parent="1">
          <mxGeometry x="759" y="300" width="72" height="30" as="geometry" />
        </mxCell>
        <mxCell id="ZY-Z2LiAh8ZrY2GahEp_-1" value="Control Server" style="text;html=1;strokeColor=none;fillColor=none;align=center;verticalAlign=middle;whiteSpace=wrap;rounded=0;" vertex="1" parent="1">
          <mxGeometry x="700" y="375" width="100" height="20" as="geometry" />
        </mxCell>
        <mxCell id="9kweAl1eoht-Mn5aI06N-4" value="" style="aspect=fixed;perimeter=ellipsePerimeter;html=1;align=center;shadow=0;dashed=0;spacingTop=3;image;image=img/lib/active_directory/site_collection.svg;" vertex="1" parent="1">
          <mxGeometry x="328.72" y="250" width="21.28" height="20" as="geometry" />
        </mxCell>
        <mxCell id="9kweAl1eoht-Mn5aI06N-7" value="Admin" style="sketch=0;pointerEvents=1;shadow=0;dashed=0;html=1;strokeColor=none;labelPosition=center;verticalLabelPosition=bottom;verticalAlign=top;align=center;fillColor=#505050;shape=mxgraph.mscae.intune.account_portal" vertex="1" parent="1">
          <mxGeometry x="691" y="157.5" width="33" height="40" as="geometry" />
        </mxCell>
        <mxCell id="9kweAl1eoht-Mn5aI06N-8" value="Discovery" style="rounded=0;whiteSpace=wrap;html=1;" vertex="1" parent="1">
          <mxGeometry x="669.72" y="340" width="80" height="30" as="geometry" />
        </mxCell>
        <mxCell id="9kweAl1eoht-Mn5aI06N-9" value="Auth" style="rounded=0;whiteSpace=wrap;html=1;" vertex="1" parent="1">
          <mxGeometry x="759" y="340" width="72" height="30" as="geometry" />
        </mxCell>
        <mxCell id="9kweAl1eoht-Mn5aI06N-11" value="PqSQL / Clickhouse" style="aspect=fixed;perimeter=ellipsePerimeter;html=1;align=center;shadow=0;dashed=0;spacingTop=3;image;image=img/lib/active_directory/database_partition_3.svg;" vertex="1" parent="1">
          <mxGeometry x="500" y="454" width="50" height="37" as="geometry" />
        </mxCell>
        <mxCell id="9kweAl1eoht-Mn5aI06N-12" value="MySQL" style="aspect=fixed;perimeter=ellipsePerimeter;html=1;align=center;shadow=0;dashed=0;spacingTop=3;image;image=img/lib/active_directory/database.svg;" vertex="1" parent="1">
          <mxGeometry x="654.72" y="456.5" width="50" height="37" as="geometry" />
        </mxCell>
        <mxCell id="9kweAl1eoht-Mn5aI06N-14" value="SLB" style="rounded=0;whiteSpace=wrap;html=1;strokeColor=#808080;fillColor=#fff2cc;" vertex="1" parent="1">
          <mxGeometry x="620" y="245" width="250" height="30" as="geometry" />
        </mxCell>
        <mxCell id="9kweAl1eoht-Mn5aI06N-18" value="" style="aspect=fixed;perimeter=ellipsePerimeter;html=1;align=center;shadow=0;dashed=0;spacingTop=3;image;image=img/lib/active_directory/site_collection.svg;" vertex="1" parent="1">
          <mxGeometry x="699.08" y="250" width="21.28" height="20" as="geometry" />
        </mxCell>
        <mxCell id="9kweAl1eoht-Mn5aI06N-21" value="存储层" style="text;html=1;strokeColor=none;fillColor=none;align=center;verticalAlign=middle;whiteSpace=wrap;rounded=0;" vertex="1" parent="1">
          <mxGeometry x="130" y="470" width="60" height="30" as="geometry" />
        </mxCell>
        <mxCell id="9kweAl1eoht-Mn5aI06N-22" value="服务层" style="text;html=1;strokeColor=none;fillColor=none;align=center;verticalAlign=middle;whiteSpace=wrap;rounded=0;" vertex="1" parent="1">
          <mxGeometry x="130" y="310" width="60" height="30" as="geometry" />
        </mxCell>
        <mxCell id="9kweAl1eoht-Mn5aI06N-24" value="" style="shape=flexArrow;endArrow=classic;startArrow=classic;html=1;rounded=0;fillColor=#60a917;strokeColor=#2D7600;endWidth=6.814814814814815;endSize=2.654814814814815;startWidth=6.814814814814815;startSize=2.654814814814815;" edge="1" parent="1">
          <mxGeometry width="100" height="100" relative="1" as="geometry">
            <mxPoint x="570" y="370.0000000000001" as="sourcePoint" />
            <mxPoint x="610" y="370" as="targetPoint" />
            <Array as="points">
              <mxPoint x="600" y="370" />
            </Array>
          </mxGeometry>
        </mxCell>
        <mxCell id="9kweAl1eoht-Mn5aI06N-26" value="" style="shape=flexArrow;endArrow=classic;startArrow=classic;html=1;rounded=0;fillColor=#60a917;strokeColor=#2D7600;endWidth=6.814814814814815;endSize=2.654814814814815;startWidth=6.814814814814815;startSize=2.654814814814815;" edge="1" parent="1">
          <mxGeometry width="100" height="100" relative="1" as="geometry">
            <mxPoint x="570" y="274.85000000000014" as="sourcePoint" />
            <mxPoint x="610" y="274.85" as="targetPoint" />
            <Array as="points">
              <mxPoint x="600" y="274.85" />
            </Array>
          </mxGeometry>
        </mxCell>
      </root>
    </mxGraphModel>
  </diagram>
  <diagram id="H_ck7P8dlUUagU2h52F6" name="原理示意图">
    <mxGraphModel dx="1095" dy="636" grid="1" gridSize="10" guides="1" tooltips="1" connect="1" arrows="1" fold="1" page="1" pageScale="1" pageWidth="827" pageHeight="1169" math="0" shadow="0">
      <root>
        <mxCell id="0" />
        <mxCell id="1" parent="0" />
        <mxCell id="0kI2cozcI7CMRLFcSVNO-47" value="" style="rounded=1;whiteSpace=wrap;html=1;glass=0;dashed=1;dashPattern=8 8;shadow=0;strokeColor=#999999;" parent="1" vertex="1">
          <mxGeometry x="130" y="160" width="570" height="440" as="geometry" />
        </mxCell>
        <mxCell id="0kI2cozcI7CMRLFcSVNO-32" value="" style="rounded=1;whiteSpace=wrap;html=1;glass=0;fillColor=#F5F9FF;strokeColor=none;" parent="1" vertex="1">
          <mxGeometry x="160" y="480" width="380" height="100" as="geometry" />
        </mxCell>
        <mxCell id="0kI2cozcI7CMRLFcSVNO-28" value="" style="rounded=0;whiteSpace=wrap;html=1;fillColor=#E6E6E6;strokeColor=none;glass=0;" parent="1" vertex="1">
          <mxGeometry x="240" y="200" width="200" height="120" as="geometry" />
        </mxCell>
        <mxCell id="vspUS4Y1iWkkkbIc6cM_-5" style="edgeStyle=orthogonalEdgeStyle;rounded=0;orthogonalLoop=1;jettySize=auto;html=1;entryX=0;entryY=0.5;entryDx=0;entryDy=0;strokeWidth=2;strokeColor=#82B366;fillColor=#60a917;shadow=0;" edge="1" parent="1" source="0kI2cozcI7CMRLFcSVNO-14" target="0kI2cozcI7CMRLFcSVNO-11">
          <mxGeometry relative="1" as="geometry" />
        </mxCell>
        <mxCell id="0kI2cozcI7CMRLFcSVNO-14" value="" style="rounded=0;whiteSpace=wrap;html=1;fillColor=#E6E6E6;strokeColor=none;" parent="1" vertex="1">
          <mxGeometry x="250" y="210" width="200" height="120" as="geometry" />
        </mxCell>
        <mxCell id="0kI2cozcI7CMRLFcSVNO-2" value="Openresty" style="rounded=0;whiteSpace=wrap;html=1;fillColor=#dae8fc;strokeColor=#6c8ebf;movable=0;resizable=0;rotatable=0;deletable=0;editable=0;connectable=0;" parent="1" vertex="1">
          <mxGeometry x="270" y="229.17" width="70" height="30" as="geometry" />
        </mxCell>
        <mxCell id="0kI2cozcI7CMRLFcSVNO-3" value="Event" style="rounded=0;whiteSpace=wrap;html=1;fillColor=#f5f5f5;fontColor=#333333;strokeColor=#666666;movable=0;resizable=0;rotatable=0;deletable=0;editable=0;connectable=0;" parent="1" vertex="1">
          <mxGeometry x="270" y="269.17" width="70" height="30" as="geometry" />
        </mxCell>
        <mxCell id="0kI2cozcI7CMRLFcSVNO-4" value="Bypass" style="rounded=0;whiteSpace=wrap;html=1;fillColor=#dae8fc;strokeColor=#6c8ebf;movable=0;resizable=0;rotatable=0;deletable=0;editable=0;connectable=0;" parent="1" vertex="1">
          <mxGeometry x="350" y="229.17" width="70" height="30" as="geometry" />
        </mxCell>
        <mxCell id="vspUS4Y1iWkkkbIc6cM_-6" style="edgeStyle=orthogonalEdgeStyle;rounded=0;orthogonalLoop=1;jettySize=auto;html=1;entryX=0.5;entryY=0;entryDx=0;entryDy=0;entryPerimeter=0;strokeColor=#666666;strokeWidth=2;curved=1;dashed=1;" edge="1" parent="1" source="0kI2cozcI7CMRLFcSVNO-5" target="0kI2cozcI7CMRLFcSVNO-16">
          <mxGeometry relative="1" as="geometry" />
        </mxCell>
        <mxCell id="0kI2cozcI7CMRLFcSVNO-5" value="Logd" style="rounded=0;whiteSpace=wrap;html=1;fillColor=#f5f5f5;fontColor=#333333;strokeColor=#666666;movable=1;resizable=1;rotatable=1;deletable=1;editable=1;connectable=1;" parent="1" vertex="1">
          <mxGeometry x="350" y="269.17" width="70" height="30" as="geometry" />
        </mxCell>
        <mxCell id="0kI2cozcI7CMRLFcSVNO-8" value="" style="rounded=1;whiteSpace=wrap;html=1;fillColor=#E6E6E6;fontColor=#333333;strokeColor=#666666;" parent="1" vertex="1">
          <mxGeometry x="200" y="495.5" width="300" height="65" as="geometry" />
        </mxCell>
        <mxCell id="0kI2cozcI7CMRLFcSVNO-11" value="App Gateway" style="rounded=0;whiteSpace=wrap;html=1;fillColor=#1ba1e2;fontColor=#ffffff;strokeColor=#006EAF;" parent="1" vertex="1">
          <mxGeometry x="800" y="247.50000000000003" width="90" height="45" as="geometry" />
        </mxCell>
        <mxCell id="0kI2cozcI7CMRLFcSVNO-12" value="Uprade" style="rounded=1;whiteSpace=wrap;html=1;strokeColor=none;" parent="1" vertex="1">
          <mxGeometry x="390" y="512.5" width="70" height="30" as="geometry" />
        </mxCell>
        <mxCell id="0kI2cozcI7CMRLFcSVNO-13" value="Pilot" style="rounded=0;whiteSpace=wrap;html=1;strokeColor=none;" parent="1" vertex="1">
          <mxGeometry x="305" y="513" width="70" height="30" as="geometry" />
        </mxCell>
        <mxCell id="0kI2cozcI7CMRLFcSVNO-15" style="edgeStyle=orthogonalEdgeStyle;rounded=0;orthogonalLoop=1;jettySize=auto;html=1;exitX=0.5;exitY=1;exitDx=0;exitDy=0;" parent="1" source="0kI2cozcI7CMRLFcSVNO-3" target="0kI2cozcI7CMRLFcSVNO-3" edge="1">
          <mxGeometry relative="1" as="geometry" />
        </mxCell>
        <mxCell id="0kI2cozcI7CMRLFcSVNO-16" value="Log Store" style="shape=cylinder3;whiteSpace=wrap;html=1;boundedLbl=1;backgroundOutline=1;size=15;" parent="1" vertex="1">
          <mxGeometry x="570" y="485" width="70" height="60" as="geometry" />
        </mxCell>
        <mxCell id="0kI2cozcI7CMRLFcSVNO-17" value="" style="endArrow=classic;html=1;rounded=0;strokeWidth=2;fillColor=#d5e8d4;strokeColor=#82b366;" parent="1" edge="1">
          <mxGeometry x="-0.25" y="40" width="50" height="50" relative="1" as="geometry">
            <mxPoint x="40" y="268.48" as="sourcePoint" />
            <mxPoint x="240" y="268.51" as="targetPoint" />
            <Array as="points">
              <mxPoint x="240" y="268.51" />
            </Array>
            <mxPoint as="offset" />
          </mxGeometry>
        </mxCell>
        <mxCell id="0kI2cozcI7CMRLFcSVNO-29" value="Engine" style="text;html=1;strokeColor=none;fillColor=none;align=center;verticalAlign=middle;whiteSpace=wrap;rounded=0;" parent="1" vertex="1">
          <mxGeometry x="240" y="170" width="60" height="30" as="geometry" />
        </mxCell>
        <mxCell id="0kI2cozcI7CMRLFcSVNO-30" value="&lt;meta charset=&quot;utf-8&quot;&gt;&lt;span style=&quot;color: rgb(0, 0, 0); font-family: Helvetica; font-size: 12px; font-style: normal; font-variant-ligatures: normal; font-variant-caps: normal; font-weight: 400; letter-spacing: normal; orphans: 2; text-align: center; text-indent: 0px; text-transform: none; widows: 2; word-spacing: 0px; -webkit-text-stroke-width: 0px; background-color: rgb(251, 251, 251); text-decoration-thickness: initial; text-decoration-style: initial; text-decoration-color: initial; float: none; display: inline !important;&quot;&gt;Control Plane&lt;/span&gt;" style="text;html=1;strokeColor=none;fillColor=none;align=center;verticalAlign=middle;whiteSpace=wrap;rounded=0;" parent="1" vertex="1">
          <mxGeometry x="130" y="450" width="140" height="30" as="geometry" />
        </mxCell>
        <mxCell id="0kI2cozcI7CMRLFcSVNO-31" value="控制端" style="text;html=1;strokeColor=none;fillColor=none;align=center;verticalAlign=middle;whiteSpace=wrap;rounded=0;" parent="1" vertex="1">
          <mxGeometry x="220" y="515" width="60" height="30" as="geometry" />
        </mxCell>
        <mxCell id="0kI2cozcI7CMRLFcSVNO-35" value="Ingress&lt;br&gt;traffic" style="text;html=1;strokeColor=none;fillColor=none;align=center;verticalAlign=middle;whiteSpace=wrap;rounded=0;glass=0;dashed=1;dashPattern=8 8;opacity=80;" parent="1" vertex="1">
          <mxGeometry x="30" y="280" width="60" height="30" as="geometry" />
        </mxCell>
        <mxCell id="0kI2cozcI7CMRLFcSVNO-37" value="Egress&lt;br&gt;traffic" style="text;html=1;strokeColor=none;fillColor=none;align=center;verticalAlign=middle;whiteSpace=wrap;rounded=0;glass=0;dashed=1;dashPattern=8 8;opacity=80;" parent="1" vertex="1">
          <mxGeometry x="710" y="280" width="60" height="30" as="geometry" />
        </mxCell>
        <mxCell id="0kI2cozcI7CMRLFcSVNO-49" value="WAAP" style="text;html=1;align=center;verticalAlign=middle;resizable=0;points=[];autosize=1;strokeColor=none;fillColor=none;fontStyle=0;fontSize=14;" parent="1" vertex="1">
          <mxGeometry x="160" y="130" width="60" height="30" as="geometry" />
        </mxCell>
        <mxCell id="6QE7lQpZtBJtU-MwEa37-3" value="&lt;span style=&quot;font-size: 6px;&quot;&gt;PgSQL /&amp;nbsp;&lt;/span&gt;&lt;span style=&quot;font-size: 6px;&quot;&gt;Clickhouse&lt;/span&gt;" style="text;html=1;strokeColor=none;fillColor=none;align=center;verticalAlign=middle;whiteSpace=wrap;rounded=0;fontSize=6;" parent="1" vertex="1">
          <mxGeometry x="540" y="560.5" width="140" height="10" as="geometry" />
        </mxCell>
        <mxCell id="vspUS4Y1iWkkkbIc6cM_-21" value="" style="endArrow=classic;html=1;rounded=0;dashed=1;strokeColor=#666666;strokeWidth=2;curved=1;exitX=0.5;exitY=0;exitDx=0;exitDy=0;edgeStyle=orthogonalEdgeStyle;" edge="1" parent="1" source="0kI2cozcI7CMRLFcSVNO-8">
          <mxGeometry width="50" height="50" relative="1" as="geometry">
            <mxPoint x="310" y="460" as="sourcePoint" />
            <mxPoint x="310" y="300" as="targetPoint" />
          </mxGeometry>
        </mxCell>
        <mxCell id="vspUS4Y1iWkkkbIc6cM_-22" value="&lt;span style=&quot;border-color: var(--border-color); font-size: 12px; text-align: left; background-color: rgb(251, 251, 251);&quot;&gt;Discovery&lt;/span&gt;&lt;br style=&quot;border-color: var(--border-color); font-size: 12px; text-align: left; background-color: rgb(251, 251, 251);&quot;&gt;&lt;span style=&quot;border-color: var(--border-color); font-size: 12px; text-align: left; background-color: rgb(251, 251, 251);&quot;&gt;Configuration&lt;/span&gt;" style="edgeLabel;html=1;align=center;verticalAlign=middle;resizable=0;points=[];" vertex="1" connectable="0" parent="vspUS4Y1iWkkkbIc6cM_-21">
          <mxGeometry x="-0.3645" y="4" relative="1" as="geometry">
            <mxPoint as="offset" />
          </mxGeometry>
        </mxCell>
      </root>
    </mxGraphModel>
  </diagram>
  <diagram id="Ht1M8jgEwFfnCIfOTk4-" name="组件介绍">
    <mxGraphModel dx="1314" dy="763" grid="1" gridSize="10" guides="1" tooltips="1" connect="1" arrows="1" fold="1" page="1" pageScale="1" pageWidth="1169" pageHeight="827" math="0" shadow="0">
      <root>
        <mxCell id="0" />
        <mxCell id="1" parent="0" />
        <mxCell id="WzUDPW5uthaogsePawCD-2" value="&lt;meta charset=&quot;utf-8&quot;&gt;&lt;span style=&quot;color: rgb(0, 0, 0); font-family: Helvetica; font-size: 12px; font-style: normal; font-variant-ligatures: normal; font-variant-caps: normal; font-weight: 400; letter-spacing: normal; orphans: 2; text-align: left; text-indent: 0px; text-transform: none; widows: 2; word-spacing: 0px; -webkit-text-stroke-width: 0px; background-color: rgb(251, 251, 251); text-decoration-thickness: initial; text-decoration-style: initial; text-decoration-color: initial; float: none; display: inline !important;&quot;&gt;组件简单介绍&lt;/span&gt;&lt;br style=&quot;border-color: var(--border-color); color: rgb(0, 0, 0); font-family: Helvetica; font-size: 12px; font-style: normal; font-variant-ligatures: normal; font-variant-caps: normal; font-weight: 400; letter-spacing: normal; orphans: 2; text-align: left; text-indent: 0px; text-transform: none; widows: 2; word-spacing: 0px; -webkit-text-stroke-width: 0px; background-color: rgb(251, 251, 251); text-decoration-thickness: initial; text-decoration-style: initial; text-decoration-color: initial;&quot;&gt;&lt;br style=&quot;border-color: var(--border-color); color: rgb(0, 0, 0); font-family: Helvetica; font-size: 12px; font-style: normal; font-variant-ligatures: normal; font-variant-caps: normal; font-weight: 400; letter-spacing: normal; orphans: 2; text-align: left; text-indent: 0px; text-transform: none; widows: 2; word-spacing: 0px; -webkit-text-stroke-width: 0px; background-color: rgb(251, 251, 251); text-decoration-thickness: initial; text-decoration-style: initial; text-decoration-color: initial;&quot;&gt;&lt;span style=&quot;color: rgb(0, 0, 0); font-family: Helvetica; font-size: 12px; font-style: normal; font-variant-ligatures: normal; font-variant-caps: normal; font-weight: 400; letter-spacing: normal; orphans: 2; text-align: left; text-indent: 0px; text-transform: none; widows: 2; word-spacing: 0px; -webkit-text-stroke-width: 0px; background-color: rgb(251, 251, 251); text-decoration-thickness: initial; text-decoration-style: initial; text-decoration-color: initial; float: none; display: inline !important;&quot;&gt;引擎：&lt;/span&gt;&lt;br style=&quot;border-color: var(--border-color); color: rgb(0, 0, 0); font-family: Helvetica; font-size: 12px; font-style: normal; font-variant-ligatures: normal; font-variant-caps: normal; font-weight: 400; letter-spacing: normal; orphans: 2; text-align: left; text-indent: 0px; text-transform: none; widows: 2; word-spacing: 0px; -webkit-text-stroke-width: 0px; background-color: rgb(251, 251, 251); text-decoration-thickness: initial; text-decoration-style: initial; text-decoration-color: initial;&quot;&gt;&lt;span style=&quot;color: rgb(0, 0, 0); font-family: Helvetica; font-size: 12px; font-style: normal; font-variant-ligatures: normal; font-variant-caps: normal; font-weight: 400; letter-spacing: normal; orphans: 2; text-align: left; text-indent: 0px; text-transform: none; widows: 2; word-spacing: 0px; -webkit-text-stroke-width: 0px; background-color: rgb(251, 251, 251); text-decoration-thickness: initial; text-decoration-style: initial; text-decoration-color: initial; float: none; display: inline !important;&quot;&gt;Openresty：&lt;/span&gt;&lt;span style=&quot;border-color: var(--border-color); font-style: normal; font-variant-ligatures: normal; font-variant-caps: normal; font-weight: 400; letter-spacing: normal; orphans: 2; text-align: left; text-indent: 0px; text-transform: none; widows: 2; word-spacing: 0px; -webkit-text-stroke-width: 0px; text-decoration-thickness: initial; text-decoration-style: initial; text-decoration-color: initial; color: rgb(51, 51, 51); font-family: Arial, sans-serif; font-size: 13px; background-color: rgb(255, 255, 255);&quot;&gt;基于nginx与lua的高性能代理服务器，检测功能的核心实现；&lt;br style=&quot;border-color: var(--border-color);&quot;&gt;Bypass：起过载保护作用，当Openresty进程挂掉后，网络流量可以正常转发，而不影响业务；&lt;br style=&quot;border-color: var(--border-color);&quot;&gt;Event：主要负责引擎与控制端的通信（Http协议），与Openresty通过共享内存通信；&lt;br style=&quot;border-color: var(--border-color);&quot;&gt;Logd：负责检测日志的记录，写入到LogStore中；&lt;br style=&quot;border-color: var(--border-color);&quot;&gt;&lt;br style=&quot;border-color: var(--border-color);&quot;&gt;控制面：&lt;br style=&quot;border-color: var(--border-color);&quot;&gt;Pilot：控制端的主要程序，负责规则生成与下发，引擎的状态监测，监测日志分析告警等；&lt;br style=&quot;border-color: var(--border-color);&quot;&gt;Uprade：负责控制端升级，配置备份与恢复；&lt;/span&gt;" style="text;whiteSpace=wrap;html=1;" parent="1" vertex="1">
          <mxGeometry x="200" y="180" width="560" height="210" as="geometry" />
        </mxCell>
      </root>
    </mxGraphModel>
  </diagram>
  <diagram id="2LwcnpU5y4H_kz4jwnWc" name="进程介绍">
    <mxGraphModel dx="1314" dy="763" grid="1" gridSize="10" guides="1" tooltips="1" connect="1" arrows="1" fold="1" page="1" pageScale="1" pageWidth="827" pageHeight="1169" math="0" shadow="0">
      <root>
        <mxCell id="0" />
        <mxCell id="1" parent="0" />
        <mxCell id="PeD444H6cPswoVOKIjSt-1" value="" style="rounded=1;whiteSpace=wrap;html=1;glass=0;dashed=1;dashPattern=8 8;shadow=0;strokeColor=#999999;" parent="1" vertex="1">
          <mxGeometry x="130" y="160" width="570" height="440" as="geometry" />
        </mxCell>
        <mxCell id="PeD444H6cPswoVOKIjSt-2" value="" style="rounded=1;whiteSpace=wrap;html=1;glass=0;fillColor=#F5F9FF;strokeColor=none;" parent="1" vertex="1">
          <mxGeometry x="160" y="480" width="380" height="100" as="geometry" />
        </mxCell>
        <mxCell id="PeD444H6cPswoVOKIjSt-3" value="" style="rounded=0;whiteSpace=wrap;html=1;fillColor=#E6E6E6;strokeColor=none;glass=0;" parent="1" vertex="1">
          <mxGeometry x="240" y="200" width="200" height="120" as="geometry" />
        </mxCell>
        <mxCell id="PeD444H6cPswoVOKIjSt-4" style="edgeStyle=orthogonalEdgeStyle;rounded=0;orthogonalLoop=1;jettySize=auto;html=1;entryX=0;entryY=0.5;entryDx=0;entryDy=0;strokeWidth=2;strokeColor=#82B366;fillColor=#60a917;shadow=0;" parent="1" source="PeD444H6cPswoVOKIjSt-5" target="PeD444H6cPswoVOKIjSt-12" edge="1">
          <mxGeometry relative="1" as="geometry" />
        </mxCell>
        <mxCell id="PeD444H6cPswoVOKIjSt-5" value="" style="rounded=0;whiteSpace=wrap;html=1;fillColor=#E6E6E6;strokeColor=none;" parent="1" vertex="1">
          <mxGeometry x="250" y="210" width="200" height="120" as="geometry" />
        </mxCell>
        <mxCell id="PeD444H6cPswoVOKIjSt-6" value="Openresty" style="rounded=0;whiteSpace=wrap;html=1;fillColor=#dae8fc;strokeColor=#6c8ebf;movable=0;resizable=0;rotatable=0;deletable=0;editable=0;connectable=0;" parent="1" vertex="1">
          <mxGeometry x="270" y="229.17" width="70" height="30" as="geometry" />
        </mxCell>
        <mxCell id="PeD444H6cPswoVOKIjSt-7" value="Event Agent" style="rounded=0;whiteSpace=wrap;html=1;fillColor=#f5f5f5;fontColor=#333333;strokeColor=#666666;movable=1;resizable=1;rotatable=1;deletable=1;editable=1;connectable=1;" parent="1" vertex="1">
          <mxGeometry x="270" y="269.17" width="70" height="30" as="geometry" />
        </mxCell>
        <mxCell id="PeD444H6cPswoVOKIjSt-8" value="Bypass" style="rounded=0;whiteSpace=wrap;html=1;fillColor=#dae8fc;strokeColor=#6c8ebf;movable=0;resizable=0;rotatable=0;deletable=0;editable=0;connectable=0;" parent="1" vertex="1">
          <mxGeometry x="350" y="229.17" width="70" height="30" as="geometry" />
        </mxCell>
        <mxCell id="PeD444H6cPswoVOKIjSt-9" style="edgeStyle=orthogonalEdgeStyle;rounded=0;orthogonalLoop=1;jettySize=auto;html=1;entryX=0.5;entryY=0;entryDx=0;entryDy=0;entryPerimeter=0;strokeColor=#666666;strokeWidth=2;curved=1;dashed=1;" parent="1" source="PeD444H6cPswoVOKIjSt-10" target="PeD444H6cPswoVOKIjSt-16" edge="1">
          <mxGeometry relative="1" as="geometry" />
        </mxCell>
        <mxCell id="PeD444H6cPswoVOKIjSt-10" value="Logd" style="rounded=0;whiteSpace=wrap;html=1;fillColor=#f5f5f5;fontColor=#333333;strokeColor=#666666;movable=1;resizable=1;rotatable=1;deletable=1;editable=1;connectable=1;" parent="1" vertex="1">
          <mxGeometry x="350" y="269.17" width="70" height="30" as="geometry" />
        </mxCell>
        <mxCell id="PeD444H6cPswoVOKIjSt-11" value="" style="rounded=1;whiteSpace=wrap;html=1;fillColor=#E6E6E6;fontColor=#333333;strokeColor=#666666;" parent="1" vertex="1">
          <mxGeometry x="200" y="495.5" width="300" height="65" as="geometry" />
        </mxCell>
        <mxCell id="PeD444H6cPswoVOKIjSt-12" value="App Gateway" style="rounded=0;whiteSpace=wrap;html=1;fillColor=#1ba1e2;fontColor=#ffffff;strokeColor=#006EAF;" parent="1" vertex="1">
          <mxGeometry x="800" y="247.50000000000003" width="90" height="45" as="geometry" />
        </mxCell>
        <mxCell id="PeD444H6cPswoVOKIjSt-13" value="Uprade" style="rounded=1;whiteSpace=wrap;html=1;strokeColor=none;" parent="1" vertex="1">
          <mxGeometry x="390" y="513" width="90" height="30" as="geometry" />
        </mxCell>
        <mxCell id="PeD444H6cPswoVOKIjSt-14" value="Control Server&amp;nbsp;" style="rounded=0;whiteSpace=wrap;html=1;strokeColor=none;" parent="1" vertex="1">
          <mxGeometry x="290" y="513" width="90" height="30" as="geometry" />
        </mxCell>
        <mxCell id="PeD444H6cPswoVOKIjSt-15" style="edgeStyle=orthogonalEdgeStyle;rounded=0;orthogonalLoop=1;jettySize=auto;html=1;exitX=0.5;exitY=1;exitDx=0;exitDy=0;" parent="1" source="PeD444H6cPswoVOKIjSt-7" target="PeD444H6cPswoVOKIjSt-7" edge="1">
          <mxGeometry relative="1" as="geometry" />
        </mxCell>
        <mxCell id="PeD444H6cPswoVOKIjSt-16" value="Log Store" style="shape=cylinder3;whiteSpace=wrap;html=1;boundedLbl=1;backgroundOutline=1;size=15;" parent="1" vertex="1">
          <mxGeometry x="570" y="485" width="70" height="60" as="geometry" />
        </mxCell>
        <mxCell id="PeD444H6cPswoVOKIjSt-17" value="" style="endArrow=classic;html=1;rounded=0;strokeWidth=2;fillColor=#d5e8d4;strokeColor=#82b366;" parent="1" edge="1">
          <mxGeometry x="-0.25" y="40" width="50" height="50" relative="1" as="geometry">
            <mxPoint x="40" y="268.48" as="sourcePoint" />
            <mxPoint x="240" y="268.5100000000001" as="targetPoint" />
            <Array as="points">
              <mxPoint x="240" y="268.51" />
            </Array>
            <mxPoint as="offset" />
          </mxGeometry>
        </mxCell>
        <mxCell id="PeD444H6cPswoVOKIjSt-18" value="Engine" style="text;html=1;strokeColor=none;fillColor=none;align=center;verticalAlign=middle;whiteSpace=wrap;rounded=0;" parent="1" vertex="1">
          <mxGeometry x="240" y="170" width="60" height="30" as="geometry" />
        </mxCell>
        <mxCell id="PeD444H6cPswoVOKIjSt-19" value="&lt;meta charset=&quot;utf-8&quot;&gt;&lt;span style=&quot;color: rgb(0, 0, 0); font-family: Helvetica; font-size: 12px; font-style: normal; font-variant-ligatures: normal; font-variant-caps: normal; font-weight: 400; letter-spacing: normal; orphans: 2; text-align: center; text-indent: 0px; text-transform: none; widows: 2; word-spacing: 0px; -webkit-text-stroke-width: 0px; background-color: rgb(251, 251, 251); text-decoration-thickness: initial; text-decoration-style: initial; text-decoration-color: initial; float: none; display: inline !important;&quot;&gt;Control Plane&lt;/span&gt;" style="text;html=1;strokeColor=none;fillColor=none;align=center;verticalAlign=middle;whiteSpace=wrap;rounded=0;" parent="1" vertex="1">
          <mxGeometry x="130" y="450" width="140" height="30" as="geometry" />
        </mxCell>
        <mxCell id="PeD444H6cPswoVOKIjSt-20" value="控制端" style="text;html=1;strokeColor=none;fillColor=none;align=center;verticalAlign=middle;whiteSpace=wrap;rounded=0;" parent="1" vertex="1">
          <mxGeometry x="220" y="515" width="60" height="30" as="geometry" />
        </mxCell>
        <mxCell id="PeD444H6cPswoVOKIjSt-21" value="Ingress&lt;br&gt;traffic" style="text;html=1;strokeColor=none;fillColor=none;align=center;verticalAlign=middle;whiteSpace=wrap;rounded=0;glass=0;dashed=1;dashPattern=8 8;opacity=80;" parent="1" vertex="1">
          <mxGeometry x="30" y="280" width="60" height="30" as="geometry" />
        </mxCell>
        <mxCell id="PeD444H6cPswoVOKIjSt-22" value="Egress&lt;br&gt;traffic" style="text;html=1;strokeColor=none;fillColor=none;align=center;verticalAlign=middle;whiteSpace=wrap;rounded=0;glass=0;dashed=1;dashPattern=8 8;opacity=80;" parent="1" vertex="1">
          <mxGeometry x="710" y="280" width="60" height="30" as="geometry" />
        </mxCell>
        <mxCell id="PeD444H6cPswoVOKIjSt-23" value="WAAP" style="text;html=1;align=center;verticalAlign=middle;resizable=0;points=[];autosize=1;strokeColor=none;fillColor=none;fontStyle=0;fontSize=14;" parent="1" vertex="1">
          <mxGeometry x="160" y="130" width="60" height="30" as="geometry" />
        </mxCell>
        <mxCell id="PeD444H6cPswoVOKIjSt-24" value="&lt;span style=&quot;font-size: 6px;&quot;&gt;PgSQL /&amp;nbsp;&lt;/span&gt;&lt;span style=&quot;font-size: 6px;&quot;&gt;Clickhouse&lt;/span&gt;" style="text;html=1;strokeColor=none;fillColor=none;align=center;verticalAlign=middle;whiteSpace=wrap;rounded=0;fontSize=6;" parent="1" vertex="1">
          <mxGeometry x="540" y="560.5" width="140" height="10" as="geometry" />
        </mxCell>
        <mxCell id="PeD444H6cPswoVOKIjSt-25" value="" style="endArrow=classic;html=1;rounded=0;dashed=1;strokeColor=#666666;strokeWidth=2;curved=1;exitX=0.5;exitY=0;exitDx=0;exitDy=0;edgeStyle=orthogonalEdgeStyle;" parent="1" source="PeD444H6cPswoVOKIjSt-11" edge="1">
          <mxGeometry width="50" height="50" relative="1" as="geometry">
            <mxPoint x="310" y="460" as="sourcePoint" />
            <mxPoint x="310" y="300.0000000000001" as="targetPoint" />
          </mxGeometry>
        </mxCell>
        <mxCell id="PeD444H6cPswoVOKIjSt-26" value="&lt;span style=&quot;border-color: var(--border-color); font-size: 12px; text-align: left; background-color: rgb(251, 251, 251);&quot;&gt;Discovery&lt;/span&gt;&lt;br style=&quot;border-color: var(--border-color); font-size: 12px; text-align: left; background-color: rgb(251, 251, 251);&quot;&gt;&lt;span style=&quot;border-color: var(--border-color); font-size: 12px; text-align: left; background-color: rgb(251, 251, 251);&quot;&gt;Configuration&lt;/span&gt;" style="edgeLabel;html=1;align=center;verticalAlign=middle;resizable=0;points=[];" parent="PeD444H6cPswoVOKIjSt-25" vertex="1" connectable="0">
          <mxGeometry x="-0.3645" y="4" relative="1" as="geometry">
            <mxPoint as="offset" />
          </mxGeometry>
        </mxCell>
      </root>
    </mxGraphModel>
  </diagram>
</mxfile>
